<?xml version="1.0" encoding="UTF-8" standalone="no"?>
<svg
   width="1024"
   height="1024"
   viewBox="0 0 1024 1024"
   version="1.1"
   id="svg3"
   sodipodi:docname="trace(2).svg"
   inkscape:version="1.3.2 (091e20e, 2023-11-25)"
   xmlns:inkscape="http://www.inkscape.org/namespaces/inkscape"
   xmlns:sodipodi="http://sodipodi.sourceforge.net/DTD/sodipodi-0.dtd"
   xmlns="http://www.w3.org/2000/svg"
   xmlns:svg="http://www.w3.org/2000/svg">
  <defs
     id="defs3" />
  <sodipodi:namedview
     id="namedview3"
     pagecolor="#ffffff"
     bordercolor="#000000"
     borderopacity="0.25"
     inkscape:showpageshadow="2"
     inkscape:pageopacity="0.0"
     inkscape:pagecheckerboard="0"
     inkscape:deskcolor="#d1d1d1"
     inkscape:export-bgcolor="#ffffff00"
     inkscape:zoom="2.856934"
     inkscape:cx="627.24585"
     inkscape:cy="213.34059"
     inkscape:window-width="1512"
     inkscape:window-height="916"
     inkscape:window-x="0"
     inkscape:window-y="38"
     inkscape:window-maximized="1"
     inkscape:current-layer="svg3" />
  <path
     d="m 299.4,178.162 c -0.878,1.42 -0.592,1.643 19.654,15.338 57.166,38.668 113.383,87.232 153.965,133.007 15.786,17.806 15.875,17.991 3.981,8.355 -35.984,-29.154 -69.849,-51.178 -118.89,-77.323 -29.38,-15.663 -75.541,-36.078 -78.773,-34.838 -3.066,1.176 -0.52,3.653 6.663,6.48 44.171,17.385 99.649,46.641 142.5,75.144 16.364,10.885 28.069,19.625 49.53,36.981 l 3.47,2.806 -4.54,-2.96 c -36.733,-23.944 -108.078,-53.287 -146.298,-60.169 -9.844,-1.773 -11.246,-1.828 -12.577,-0.496 -2.303,2.302 -0.525,3.192 9.915,4.965 32.456,5.513 83.448,24.668 124.224,46.665 21.783,11.751 37.533,22.883 49.245,34.806 5.386,5.484 6.37,6.077 10.082,6.077 3.528,0 4.601,-0.554 7.531,-3.891 27.117,-30.871 117.109,-73.322 178.418,-84.163 7.285,-1.288 9.136,-2.475 7.304,-4.682 -1.142,-1.376 -2.234,-1.281 -15.804,1.373 -15.716,3.074 -42.374,11.678 -69.5,22.431 -17.779,7.047 -57.165,26.404 -68,33.419 -6.566,4.251 -6.752,4.312 -3,0.983 13.133,-11.653 54.674,-40.863 77.34,-54.382 32.552,-19.416 73.138,-39.516 108.66,-53.815 9.49,-3.82 11.016,-4.946 9.377,-6.922 -1.263,-1.521 -2.611,-1.056 -26.377,9.095 -33.564,14.336 -75.064,35.98 -104.5,54.5 -21.649,13.62 -55.562,38.092 -68.165,49.187 -3.666,3.227 -6.955,5.867 -7.309,5.867 -0.354,0 1.745,-2.776 4.665,-6.17 27.592,-32.066 56.211,-60.101 90.809,-88.955 11.618,-9.689 13.101,-10.857 34.234,-26.968 13.009,-9.916 37.112,-26.806 49.032,-34.357 5.032,-3.187 7.734,-5.537 7.734,-6.725 0,-1.004 -0.586,-1.825 -1.303,-1.825 -2.82,0 -31.862,19.865 -61.197,41.859 -53.977,40.47 -95.436,80.295 -138.216,132.767 l -11.517,14.127 -9.751,-12.127 C 455.087,295.269 395.274,240.632 326,192.844 301.029,175.618 300.987,175.594 299.4,178.162 m -5.183,91.399 c -5.87,4.111 -6.362,11.456 -1.067,15.912 7.967,6.704 19.789,-1.964 15.803,-11.586 -2.19,-5.289 -10.063,-7.6 -14.736,-4.326 M 717.75,269.08 c -2.137,1.245 -4.75,6.098 -4.75,8.823 0,8.695 10.583,13.122 17.211,7.199 2.684,-2.398 3.244,-3.622 3.244,-7.102 0,-3.48 -0.56,-4.704 -3.244,-7.102 -3.432,-3.068 -8.937,-3.87 -12.461,-1.818 m -458.401,12.452 c -1.108,2.889 1.169,3.549 11.239,3.256 9.149,-0.266 9.912,-0.442 9.912,-2.288 0,-1.852 -0.762,-2.021 -10.268,-2.285 -8.668,-0.241 -10.364,-0.036 -10.883,1.317 m 483,0 c -1.108,2.889 1.169,3.549 11.239,3.256 9.149,-0.266 9.912,-0.442 9.912,-2.288 0,-1.852 -0.762,-2.021 -10.268,-2.285 -8.668,-0.241 -10.364,-0.036 -10.883,1.317 M 515.194,657.577 c -1.207,0.845 -2.194,1.918 -2.194,2.385 0,0.466 -3.2,7.528 -7.11,15.693 -3.911,8.165 -12.867,26.995 -19.902,41.845 -7.035,14.85 -16.901,35.521 -21.925,45.936 -5.024,10.415 -8.907,19.528 -8.63,20.25 0.727,1.895 122.386,1.949 123.113,0.054 0.266,-0.693 -12.573,-28.671 -28.531,-62.174 C 534.057,688.062 521,660.349 521,659.98 c 0,-0.368 -0.813,-1.406 -1.806,-2.305 -1.633,-1.477 -2.018,-1.487 -4,-0.098 M 606.47,723 c 0,34.375 0.126,48.438 0.279,31.25 0.154,-17.187 0.154,-45.312 0,-62.5 -0.153,-17.187 -0.279,-3.125 -0.279,31.25 M 383.25,680.728 c 8.69669,0.91057 0,0 0,0 M 508.768,698.5 c -2.431,4.78 -17.596,36.559 -26.007,54.5 -2.192,4.675 -4.186,8.837 -4.432,9.25 -0.246,0.413 14.628,0.75 33.052,0.75 h 33.5 l -7.328,-15.25 C 533.523,739.362 525.97,723.725 520.769,713 l -9.458,-19.5 -2.543,5"
     stroke="none"
     fill="#dfc671"
     fill-rule="evenodd"
     id="path2"
     sodipodi:nodetypes="ccscccccccccccscscccccsccscsccscsccssccccsccccccscsccccsccccscccscsssscsccccccccccssccccc" />
  <path
     d="m 408,373.603 c -11.87,3.176 -20.763,10.728 -26.374,22.397 -2.898,6.027 -3.124,7.264 -3.099,17 0.023,9.404 0.315,11.094 2.795,16.192 6.329,13.012 19.016,22.081 32.754,23.412 21.339,2.067 40.241,-12.708 44.055,-34.437 3.488,-19.869 -11.304,-40.743 -31.93,-45.058 -6.879,-1.44 -11.436,-1.316 -18.201,0.494 m 188.5,-0.194 c -20.619,5.109 -34.428,25.745 -30.687,45.859 3.194,17.179 15.882,29.599 33.565,32.857 21.607,3.982 42.891,-11.054 46.763,-33.035 4.962,-28.168 -21.616,-52.625 -49.641,-45.681 m -96,0.934 c -9.756,3.222 -16.816,8.387 -21.763,15.922 -4.747,7.23 -6.737,13.805 -6.737,22.257 0,26.604 24.649,45.669 50.38,38.967 11.362,-2.959 21.32,-11.347 26.44,-22.271 2.375,-5.066 2.68,-6.917 2.68,-16.239 0,-9.88 -0.201,-10.929 -3.297,-17.218 -4.176,-8.484 -10.453,-14.774 -18.883,-18.924 -5.767,-2.839 -7.785,-3.293 -15.718,-3.537 -5.606,-0.172 -10.638,0.229 -13.102,1.043 m -45.476,82.26 c -19.687,5.291 -32.689,25.211 -29.314,44.914 3.062,17.876 15.493,30.505 33.075,33.602 26.313,4.635 50.816,-19.619 46.259,-45.79 -2.966,-17.032 -15.885,-30.075 -33.004,-33.321 -6.926,-1.314 -10.358,-1.194 -17.016,0.595 m 95.383,-0.572 c -15.486,3.07 -28.794,17.261 -31.408,33.493 -2.754,17.105 6.814,34.735 23.001,42.379 4.884,2.306 6.734,2.597 16.521,2.597 10.407,0 11.388,-0.181 17.605,-3.241 7.929,-3.904 14.952,-11.056 18.694,-19.041 2.398,-5.116 2.68,-6.877 2.68,-16.718 0,-9.841 -0.282,-11.602 -2.68,-16.718 -7.814,-16.671 -26.584,-26.286 -44.413,-22.751 m -46.287,83.096 c -11.693,1.943 -23.696,11.356 -28.887,22.655 -3.825,8.327 -4.345,20.894 -1.221,29.496 4.048,11.148 10.307,18.249 20.488,23.249 20.006,9.824 44.116,1.181 53.804,-19.286 2.925,-6.179 3.191,-7.575 3.193,-16.741 0.003,-9.15 -0.263,-10.552 -3.123,-16.5 -5.951,-12.375 -15.161,-19.789 -27.948,-22.498 -7.696,-1.63 -8.618,-1.652 -16.306,-0.375 M 257,659.423 c -14.189,3.003 -23.613,8.151 -32.508,17.759 -11.205,12.102 -15.856,25.398 -15.856,45.318 0,20.153 4.711,33.403 16.251,45.7 11.305,12.048 24.421,17.685 43.113,18.531 19.485,0.882 34.714,-3.761 48.615,-14.822 L 323,766.828 V 741.414 716 H 298.5 274 v 10.5 10.5 h 12.5 12.5 v 10.327 10.327 l -8.079,2.812 c -13.386,4.66 -28.335,4.424 -38.188,-0.602 -15.633,-7.975 -22.848,-30.378 -17.188,-53.364 2.185,-8.875 10.495,-18.914 18.741,-22.642 4.462,-2.017 6.8,-2.357 16.214,-2.358 12.987,0 17.472,1.587 25.379,8.984 l 4.945,4.625 8.838,-4.511 c 12.632,-6.448 12.004,-5.785 9.428,-9.953 -5.063,-8.192 -17.073,-16.475 -29.09,-20.062 -7.626,-2.276 -24.861,-2.882 -33,-1.16 m 89,62.927 v 62.476 l 12.055,-0.163 12.054,-0.163 0.196,-23 0.195,-23 h 9.935 9.936 l 13.246,23 13.246,23 13.537,0.278 13.537,0.278 -14.339,-24.92 -14.339,-24.92 6.576,-3.358 c 11.284,-5.762 17.244,-16.467 17.46,-31.358 0.152,-10.454 -1.639,-17.289 -6.393,-24.409 -4.292,-6.426 -8.952,-10.088 -17.024,-13.377 -5.082,-2.07 -7.155,-2.208 -37.628,-2.515 L 346,659.875 v 62.475 m 260.765,0.15 0.265,62.5 H 649.515 692 V 773.5 762 H 661.5 631 V 747.5 733 h 26 26 V 721.5 710 H 657 631 V 696.5 683 H 661.5 692 V 671.5 660 H 649.25 606.5 l 0.265,62.5 M 718,722.5 V 785 h 12.5 12.5 v -21 -21 l 14.25,-0.017 c 16.744,-0.021 25.318,-1.57 33.846,-6.115 10.285,-5.482 16.579,-14.744 18.938,-27.868 3.183,-17.712 -4.013,-34.772 -17.842,-42.299 C 781.776,661.032 774.483,660 744.84,660 H 718 v 62.5 M 371,699 v 19.291 l 14.75,-0.628 c 17.942,-0.764 19.185,-1.031 23.946,-5.146 3.698,-3.197 3.785,-3.433 4.14,-11.237 0.472,-10.396 -1.652,-15.044 -8.357,-18.29 -3.61654,-1.75125 -6.39165,-2.2322 -16.90453,-2.65239 -0.8269,-0.0331 -1.70166,-0.0657 -2.62847,-0.0986 L 371,679.709 V 699 m 371.791,1.96 -0.291,20.209 15.5,-0.345 c 17.077,-0.381 20.002,-1.21 23.979,-6.795 1.176,-1.65 2.614,-5.595 3.197,-8.765 1.29,-7.014 0.01,-12.701 -3.906,-17.355 -4.294,-5.103 -8.141,-6.177 -23.979,-6.694 l -14.209,-0.464 -0.291,20.209"
     stroke="none"
     fill="#593976"
     fill-rule="evenodd"
     id="path3"
     sodipodi:nodetypes="cscccccccccscccsccscscccssccccccsccssccccccccccccscsccccccccccccccccccccsccccccccccccccccscccccccccccccccccccccccccccccccccccccccccsccccscccscccccccssscc" />
</svg>
